<?xml version="1.0" standalone="no"?>
<!DOCTYPE svg PUBLIC "-//W3C//DTD SVG 20010904//EN"
 "http://www.w3.org/TR/2001/REC-SVG-20010904/DTD/svg10.dtd">
<svg version="1.0" xmlns="http://www.w3.org/2000/svg"
 width="323.000000pt" height="318.000000pt" viewBox="0 0 323.000000 318.000000"
 preserveAspectRatio="xMidYMid meet">

<g transform="translate(0.000000,318.000000) scale(0.100000,-0.100000)"
fill="#000000" stroke="none">
<path d="M1525 2468 c-12 -32 -45 -132 -45 -135 0 -10 39 -1 50 12 14 17 46
20 55 5 8 -13 45 -13 45 -1 0 5 -12 37 -26 70 -22 50 -31 61 -51 61 -13 0 -26
-6 -28 -12z m33 -77 c-15 -5 -19 4 -11 24 6 18 7 18 13 -1 4 -10 3 -21 -2 -23z"/>
<path d="M1656 2465 c-3 -9 -6 -41 -6 -70 0 -43 3 -54 18 -57 11 -3 21 6 29
27 l11 30 13 -32 c10 -24 20 -33 36 -33 26 0 26 0 14 34 -7 18 -6 28 5 36 17
15 18 44 1 58 -7 6 -35 14 -63 17 -43 6 -52 4 -58 -10z m84 -35 c0 -5 -9 -10
-20 -10 -11 0 -20 5 -20 10 0 6 9 10 20 10 11 0 20 -4 20 -10z"/>
<path d="M1410 2433 l-1 -38 -14 33 c-20 46 -50 44 -60 -5 l-8 -38 -10 33 c-6
20 -16 32 -28 32 -29 0 -30 -14 -5 -76 20 -48 29 -60 49 -62 24 -3 26 0 29 40
l4 43 17 -38 c15 -32 21 -37 40 -31 12 3 23 7 23 8 1 0 4 31 8 69 7 67 6 67
-19 67 -22 0 -25 -4 -25 -37z"/>
<path d="M1825 2457 c-3 -6 -8 -38 -13 -69 -10 -65 -7 -68 63 -68 34 0 47 5
59 22 17 24 21 65 8 84 -18 28 -110 52 -117 31z m73 -71 c-2 -23 -8 -31 -23
-31 -16 0 -19 5 -16 30 4 39 8 45 27 38 10 -4 14 -16 12 -37z"/>
<path d="M1193 2422 c-6 -4 -17 -21 -24 -37 l-11 -30 -12 25 c-7 17 -17 24
-30 22 -19 -4 -19 -18 5 -105 7 -28 14 -37 25 -33 9 3 19 6 24 6 4 0 6 8 3 19
-7 27 15 36 37 16 13 -12 28 -15 44 -11 l25 6 -36 33 -35 33 16 32 c16 30 16
32 -1 32 -10 0 -23 -4 -30 -8z"/>
<path d="M2043 2358 c-9 -35 -16 -65 -15 -68 0 -3 10 -6 21 -8 12 -2 22 4 26
17 5 16 12 19 36 14 22 -4 29 -2 29 11 0 8 -11 18 -25 22 -42 10 -29 26 15 19
32 -5 40 -4 40 8 0 13 -74 47 -101 47 -4 0 -16 -28 -26 -62z"/>
<path d="M2175 2313 c-14 -36 -25 -66 -23 -68 10 -8 147 -55 154 -53 17 4 54
-14 54 -27 0 -12 29 -30 37 -22 2 2 7 34 11 71 8 59 6 68 -9 77 -28 14 -34 12
-88 -37 -28 -25 -49 -39 -46 -31 4 9 -4 18 -24 27 -36 14 -36 18 -16 67 19 46
19 50 -4 56 -16 4 -24 -6 -46 -60z m192 -100 c-3 -3 -11 -2 -17 2 -8 5 -7 11
2 22 12 15 13 14 16 -1 2 -10 1 -20 -1 -23z"/>
<path d="M993 2360 c-66 -27 -44 -140 27 -140 34 0 80 35 80 61 0 25 -26 25
-40 -1 -21 -40 -60 -20 -60 32 0 18 4 19 34 14 41 -8 59 10 31 31 -21 15 -40
16 -72 3z"/>
<path d="M837 2289 c-16 -9 -18 -19 -11 -77 3 -37 8 -70 11 -75 6 -11 43 12
43 27 0 17 27 28 49 21 9 -2 23 0 31 5 12 9 6 19 -38 60 -58 54 -58 54 -85 39z
m51 -75 c-10 -10 -28 6 -28 24 0 15 1 15 17 -1 9 -9 14 -19 11 -23z"/>
<path d="M687 2200 l-47 -30 36 -55 c20 -30 42 -55 49 -55 16 0 95 58 95 69 0
21 -13 41 -26 41 -8 0 -14 8 -14 18 0 20 -18 42 -35 42 -6 0 -32 -13 -58 -30z
m42 -36 c-6 -7 -15 -11 -21 -8 -5 3 -4 12 3 20 6 7 15 11 21 8 5 -3 4 -12 -3
-20z m41 -34 c0 -12 -28 -25 -36 -17 -9 9 6 27 22 27 8 0 14 -5 14 -10z"/>
<path d="M2459 2201 c-16 -16 -29 -40 -29 -53 0 -27 38 -68 62 -68 9 0 18 -7
22 -15 8 -23 19 -18 39 17 18 32 18 33 -3 50 -36 29 -68 20 -38 -10 9 -9 8
-12 -4 -12 -8 0 -21 7 -28 15 -10 12 -9 20 4 40 19 29 30 31 48 10 42 -50 58
-58 58 -29 0 29 -21 56 -55 70 -44 18 -42 19 -76 -15z"/>
<path d="M1370 2165 c-52 -8 -151 -27 -220 -44 -111 -27 -129 -34 -157 -65
-26 -28 -30 -39 -24 -62 7 -29 31 -46 31 -22 0 8 8 14 18 14 14 0 19 -7 18
-28 -1 -17 -6 -26 -13 -24 -6 3 -14 -3 -18 -12 -6 -15 -8 -15 -15 3 -6 14 -9
5 -9 -32 -1 -29 -3 -53 -5 -53 -2 0 -17 7 -32 15 -36 19 -54 19 -54 2 0 -8 19
-21 41 -30 49 -19 44 -33 -21 -62 l-40 -18 0 -157 c0 -165 15 -256 59 -356
l20 -45 41 30 c57 41 152 77 266 100 117 23 188 29 514 42 445 19 535 25 554
35 15 9 11 12 -28 17 -26 4 -94 23 -153 42 -200 66 -281 78 -528 79 -225 1
-299 -7 -443 -45 -73 -19 -185 -70 -197 -89 -15 -25 -26 -6 -23 42 3 49 6 54
46 81 57 38 186 82 302 103 130 23 725 35 820 17 36 -7 94 -12 131 -13 56 0
72 4 113 31 51 32 57 46 12 29 -51 -19 -113 -10 -302 44 -197 56 -260 71 -356
82 l-58 6 0 53 0 52 118 7 c65 3 134 11 153 17 19 6 79 15 134 19 55 4 116 14
135 22 l35 15 -60 6 c-33 3 -98 15 -144 26 -46 11 -129 25 -185 31 -56 6 -120
13 -143 16 l-43 5 0 45 0 44 -97 -1 c-54 -1 -141 -7 -193 -14z m114 -20 c3 -8
12 -15 21 -15 8 0 15 -4 15 -10 0 -5 -5 -10 -11 -10 -7 0 -9 -10 -5 -26 6 -23
5 -24 -15 -14 -15 9 -24 9 -32 1 -17 -17 -29 -13 -22 8 3 11 1 22 -5 26 -17
10 -11 25 10 25 11 0 20 7 20 15 0 8 4 15 9 15 5 0 11 -7 15 -15z m-162 -35
c17 0 18 -3 8 -15 -6 -8 -9 -23 -5 -35 7 -21 -4 -27 -21 -10 -8 8 -15 6 -24
-5 -19 -22 -28 -18 -22 10 2 15 0 25 -7 25 -7 0 0 13 16 29 19 20 29 24 31 15
2 -8 13 -14 24 -14z m274 2 c16 -10 3 -37 -18 -38 -10 -1 -16 2 -13 6 3 5 0
12 -6 16 -8 4 -7 9 2 15 17 11 21 11 35 1z m-442 -49 c18 7 22 -8 5 -19 -6 -3
-8 -17 -5 -29 5 -19 3 -22 -14 -18 -11 3 -28 -1 -37 -8 -15 -12 -16 -12 -10 5
5 11 3 22 -3 26 -7 5 -3 16 12 33 14 16 25 21 29 15 4 -6 14 -8 23 -5z m240
-19 c19 -7 9 -34 -14 -34 -21 0 -34 26 -17 34 7 2 13 5 14 5 1 1 8 -2 17 -5z
m-170 -40 c9 -25 7 -34 -8 -34 -19 0 -28 14 -20 34 8 20 20 20 28 0z m280 -44
c18 0 22 -15 5 -26 -6 -3 -9 -15 -6 -25 4 -16 1 -18 -19 -13 -14 4 -31 1 -41
-7 -15 -13 -16 -11 -10 13 5 20 3 30 -10 37 -17 10 -17 10 -1 11 10 0 23 9 30
20 11 18 14 18 24 5 6 -8 19 -15 28 -15z m-204 -10 c0 -5 9 -10 20 -10 21 0
27 -15 10 -25 -6 -4 -8 -16 -4 -27 5 -17 3 -19 -15 -13 -13 4 -28 1 -36 -5
-12 -10 -15 -9 -15 7 0 10 -5 24 -11 30 -8 8 -5 13 10 18 12 3 21 13 21 21 0
8 5 14 10 14 6 0 10 -4 10 -10z m303 -36 c-2 -7 -14 -14 -25 -17 -11 -3 -17
-3 -14 0 3 4 1 12 -5 20 -9 10 -8 13 5 13 9 0 16 5 16 10 0 6 6 5 14 -2 7 -7
11 -18 9 -24z m-450 -18 c18 5 20 4 10 -7 -7 -7 -13 -24 -13 -37 0 -15 -5 -22
-12 -19 -7 2 -21 -3 -32 -12 -17 -15 -18 -15 -15 4 2 11 0 26 -4 33 -5 7 -4
12 3 12 6 0 16 12 22 28 9 22 12 24 15 9 4 -13 10 -16 26 -11z m241 -32 c19
-7 9 -34 -14 -34 -21 0 -34 26 -17 34 7 2 13 5 14 5 1 1 8 -2 17 -5z m-170
-39 c-6 -16 -34 -28 -34 -16 0 22 13 39 25 35 8 -3 11 -12 9 -19z m-187 -25
c0 -16 -4 -27 -9 -24 -5 3 -16 0 -25 -8 -15 -11 -16 -11 -10 5 3 9 2 17 -2 17
-5 0 -4 11 2 24 15 32 44 23 44 -14z m470 -20 c12 0 13 -3 3 -15 -6 -8 -9 -23
-5 -35 6 -19 5 -20 -14 -8 -17 11 -25 10 -42 -1 -20 -12 -21 -11 -16 10 4 15
0 27 -11 35 -15 12 -15 13 6 14 16 0 26 7 30 22 l5 22 15 -22 c8 -12 21 -22
29 -22z m-207 0 c0 -5 12 -10 26 -10 24 0 24 -1 9 -16 -9 -10 -14 -26 -11 -36
4 -17 1 -19 -19 -14 -13 3 -27 2 -30 -4 -11 -17 -23 -11 -18 9 3 10 0 22 -6
25 -16 10 -13 26 4 26 9 0 18 7 21 15 7 17 24 20 24 5z m303 -41 c-6 -20 -36
-20 -44 1 -8 20 21 41 36 26 7 -6 10 -18 8 -27z m-451 -9 c17 0 18 -3 8 -15
-7 -8 -10 -24 -7 -35 4 -17 2 -20 -13 -15 -10 3 -21 1 -25 -5 -11 -18 -27 -11
-20 10 4 11 2 20 -4 20 -6 0 -11 5 -11 10 0 6 6 10 14 10 7 0 17 10 21 23 4
13 8 17 12 10 2 -7 14 -13 25 -13z m-115 -80 c-1 -14 -11 -30 -22 -36 -16 -8
-21 -6 -28 10 -5 13 -4 22 2 24 6 2 11 9 11 16 0 6 9 12 19 12 14 0 19 -7 18
-26z"/>
<path d="M2080 1911 c-25 -7 -25 -7 5 -13 17 -3 59 -13 94 -23 65 -17 131 -15
161 6 11 8 4 9 -27 5 -23 -3 -48 -9 -56 -12 -12 -4 -14 0 -10 15 5 19 1 21
-48 22 -30 0 -63 2 -74 4 -11 1 -31 -1 -45 -4z"/>
<path d="M2440 1891 c0 -6 5 -13 10 -16 6 -3 10 1 10 9 0 9 -4 16 -10 16 -5 0
-10 -4 -10 -9z"/>
<path d="M770 1875 c0 -8 2 -15 4 -15 2 0 6 7 10 15 3 8 1 15 -4 15 -6 0 -10
-7 -10 -15z"/>
<path d="M1875 1864 c11 -4 76 -24 144 -46 97 -30 137 -38 180 -36 64 4 62 5
-79 48 -70 21 -131 33 -185 36 -44 2 -71 1 -60 -2z"/>
<path d="M716 1655 c-5 -21 -12 -25 -43 -25 l-36 0 28 -21 c22 -18 26 -28 21
-50 -6 -33 0 -36 25 -13 16 14 20 14 44 -2 l27 -18 -6 31 c-6 26 -3 34 20 52
l27 21 -36 0 c-31 0 -38 4 -43 25 -3 14 -10 25 -14 25 -4 0 -11 -11 -14 -25z"/>
<path d="M2494 1655 c-5 -21 -12 -25 -43 -25 l-36 -1 28 -23 c24 -20 27 -26
18 -49 -12 -31 -9 -33 23 -12 20 13 25 13 42 0 28 -21 35 -18 23 12 -9 23 -6
29 18 49 l28 23 -33 1 c-25 0 -35 5 -42 25 -5 14 -12 25 -15 25 -2 0 -7 -11
-11 -25z"/>
<path d="M2000 1570 c19 -4 79 -19 134 -34 127 -34 186 -34 243 -1 23 14 43
29 43 33 0 4 -102 8 -228 9 -129 1 -212 -2 -192 -7z"/>
<path d="M740 1449 c0 -37 41 -172 70 -229 43 -86 48 -70 6 21 -19 41 -40 103
-47 139 -12 62 -29 102 -29 69z"/>
<path d="M2463 1376 c-12 -45 -35 -111 -52 -146 -37 -74 -41 -103 -6 -42 32
57 71 166 80 225 11 73 0 55 -22 -37z"/>
<path d="M2345 1314 c-24 -8 -106 -13 -210 -14 -181 -2 -185 -7 -25 -35 136
-24 190 -17 256 32 37 27 30 33 -21 17z"/>
<path d="M1480 1243 c-150 -14 -226 -25 -294 -43 -85 -21 -186 -64 -186 -77 1
-4 25 -34 54 -67 l52 -58 75 25 c111 38 228 55 504 72 264 17 472 46 540 76
l40 18 -55 0 c-30 1 -109 10 -175 20 -213 35 -420 48 -555 34z"/>
<path d="M2276 1171 c-28 -30 -144 -88 -222 -109 -76 -21 -240 -44 -444 -62
-183 -16 -340 -44 -340 -60 0 -13 107 -50 188 -66 286 -55 648 57 796 246 27
34 46 63 44 66 -3 2 -13 -5 -22 -15z"/>
<path d="M903 1062 c-42 -26 -56 -52 -30 -52 7 0 19 6 26 13 11 10 11 8 2 -11
-16 -30 -6 -43 27 -36 26 7 27 6 10 -13 -41 -45 -4 -45 40 0 43 44 42 60 -3
51 -39 -7 -40 -6 -23 31 18 41 -1 48 -49 17z"/>
<path d="M2265 1056 c-31 -47 17 -99 74 -81 29 9 48 45 30 56 -16 10 -29 2
-29 -17 0 -21 -38 -17 -50 6 -8 16 -7 22 10 32 25 16 26 28 0 28 -11 0 -27
-11 -35 -24z"/>
<path d="M2176 982 c-3 -4 14 -29 36 -56 l41 -47 28 27 c33 32 24 60 -9 30
-18 -16 -20 -15 -46 19 -27 35 -40 42 -50 27z"/>
<path d="M1012 933 c-40 -19 -51 -28 -42 -37 6 -6 15 -12 21 -12 5 -1 14 -2
19 -3 6 0 15 -12 20 -26 5 -14 13 -25 18 -25 12 0 36 110 25 120 -4 4 -32 -4
-61 -17z"/>
<path d="M2107 924 c-6 -6 6 -25 51 -82 l19 -24 28 24 c32 28 28 56 -6 35 -18
-10 -23 -8 -47 21 -28 33 -34 37 -45 26z"/>
<path d="M1106 860 c-27 -42 -32 -60 -16 -60 14 0 71 81 64 91 -10 17 -21 9
-48 -31z"/>
<path d="M1156 825 c-28 -51 -22 -86 7 -44 17 23 22 19 29 -25 6 -36 27 -27
52 22 21 41 23 51 11 56 -8 3 -16 -3 -20 -15 -8 -24 -25 -25 -25 -1 0 10 -6
26 -13 36 -13 17 -16 15 -41 -29z"/>
<path d="M1993 842 c-18 -9 -33 -18 -33 -21 0 -3 13 -27 28 -53 l28 -47 32 19
c42 26 42 44 0 35 -33 -7 -33 -7 -10 10 27 20 20 40 -9 24 -12 -6 -24 -7 -27
-3 -4 4 -2 8 3 11 27 10 39 23 30 32 -6 5 -22 3 -42 -7z"/>
<path d="M1284 808 c-4 -6 0 -15 9 -19 14 -8 14 -13 1 -44 -17 -42 -17 -45 -1
-45 7 0 21 16 30 36 12 24 22 34 32 30 9 -3 15 0 15 8 0 17 -78 48 -86 34z"/>
<path d="M1892 794 c-43 -30 -18 -104 36 -104 27 0 57 29 43 43 -7 7 -15 6
-25 -3 -21 -16 -46 -6 -46 20 0 13 10 24 27 31 22 8 24 12 13 19 -20 13 -22
13 -48 -6z"/>
<path d="M1382 728 c-5 -29 -9 -54 -8 -56 2 -1 18 -3 37 -5 38 -2 57 16 22 21
-13 2 -23 8 -23 13 0 6 10 9 22 7 11 -2 23 3 25 10 3 7 -4 12 -16 12 -12 0
-21 5 -21 11 0 7 9 9 24 5 16 -4 26 -1 29 8 4 9 -5 16 -25 20 -52 10 -55 8
-66 -46z"/>
<path d="M1815 748 l7 -33 -29 28 c-33 31 -57 36 -49 10 3 -10 8 -35 12 -55 4
-24 12 -38 21 -38 11 0 13 7 9 26 l-7 26 30 -21 c32 -23 51 -27 51 -10 0 34
-24 99 -37 99 -11 0 -13 -8 -8 -32z"/>
<path d="M1496 723 c-9 -58 -7 -73 9 -73 10 0 15 10 15 28 l1 27 22 -27 c31
-38 43 -35 51 10 9 57 7 72 -8 72 -9 0 -16 -12 -18 -32 l-3 -33 -20 33 c-25
42 -41 41 -49 -5z"/>
<path d="M1653 743 c-3 -10 -12 -33 -19 -52 -8 -18 -14 -35 -14 -37 0 -9 31
-3 50 8 15 10 22 10 32 0 6 -6 18 -12 25 -12 9 0 4 17 -14 55 -28 56 -49 69
-60 38z"/>
</g>
</svg>
